<mxfile host="app.diagrams.net" agent="Mozilla/5.0 (Windows NT 10.0; Win64; x64; rv:134.0) Gecko/20100101 Firefox/134.0" version="26.0.7">
  <diagram name="Strona-1" id="J-38JeSTsiYzVacKP8Ot">
    <mxGraphModel dx="484" dy="510" grid="1" gridSize="10" guides="1" tooltips="1" connect="1" arrows="1" fold="1" page="1" pageScale="1" pageWidth="827" pageHeight="1169" math="0" shadow="0">
      <root>
        <mxCell id="0" />
        <mxCell id="1" parent="0" />
        <mxCell id="AXswlEOneYYweRu8q5Nk-8" style="edgeStyle=orthogonalEdgeStyle;rounded=0;orthogonalLoop=1;jettySize=auto;html=1;entryX=0.5;entryY=0;entryDx=0;entryDy=0;" edge="1" parent="1" source="AXswlEOneYYweRu8q5Nk-3" target="AXswlEOneYYweRu8q5Nk-5">
          <mxGeometry relative="1" as="geometry" />
        </mxCell>
        <mxCell id="AXswlEOneYYweRu8q5Nk-24" value="Uruchom czujnik" style="edgeLabel;html=1;align=center;verticalAlign=middle;resizable=0;points=[];" vertex="1" connectable="0" parent="AXswlEOneYYweRu8q5Nk-8">
          <mxGeometry x="0.0517" y="1" relative="1" as="geometry">
            <mxPoint x="-1" y="-6" as="offset" />
          </mxGeometry>
        </mxCell>
        <mxCell id="AXswlEOneYYweRu8q5Nk-3" value="" style="ellipse;whiteSpace=wrap;html=1;aspect=fixed;fillColor=light-dark(#000000,var(--ge-dark-color, #121212));" vertex="1" parent="1">
          <mxGeometry x="220" y="30" width="10" height="10" as="geometry" />
        </mxCell>
        <mxCell id="AXswlEOneYYweRu8q5Nk-5" value="StanSpoczynku" style="rounded=0;whiteSpace=wrap;html=1;" vertex="1" parent="1">
          <mxGeometry x="177.5" y="90" width="95" height="20" as="geometry" />
        </mxCell>
        <mxCell id="AXswlEOneYYweRu8q5Nk-10" value="Pomiar wilgotności" style="rounded=0;whiteSpace=wrap;html=1;" vertex="1" parent="1">
          <mxGeometry x="80" y="150" width="95" height="30" as="geometry" />
        </mxCell>
        <mxCell id="AXswlEOneYYweRu8q5Nk-11" value="AnalizaDanych" style="rounded=0;whiteSpace=wrap;html=1;" vertex="1" parent="1">
          <mxGeometry x="80" y="210" width="95" height="20" as="geometry" />
        </mxCell>
        <mxCell id="AXswlEOneYYweRu8q5Nk-12" value="WysłanieDanych" style="rounded=0;whiteSpace=wrap;html=1;" vertex="1" parent="1">
          <mxGeometry x="150" y="240" width="95" height="20" as="geometry" />
        </mxCell>
        <mxCell id="AXswlEOneYYweRu8q5Nk-13" value="Archiwizacja" style="rounded=0;whiteSpace=wrap;html=1;" vertex="1" parent="1">
          <mxGeometry x="150" y="300" width="95" height="20" as="geometry" />
        </mxCell>
        <mxCell id="AXswlEOneYYweRu8q5Nk-15" value="" style="ellipse;html=1;shape=endState;fillColor=#000000;strokeColor=#000000;" vertex="1" parent="1">
          <mxGeometry x="217.5" y="152.5" width="15" height="15" as="geometry" />
        </mxCell>
        <mxCell id="AXswlEOneYYweRu8q5Nk-16" value="" style="endArrow=classic;html=1;rounded=0;exitX=0.5;exitY=1;exitDx=0;exitDy=0;entryX=0.5;entryY=0;entryDx=0;entryDy=0;" edge="1" parent="1" source="AXswlEOneYYweRu8q5Nk-5" target="AXswlEOneYYweRu8q5Nk-15">
          <mxGeometry width="50" height="50" relative="1" as="geometry">
            <mxPoint x="230" y="240" as="sourcePoint" />
            <mxPoint x="280" y="190" as="targetPoint" />
          </mxGeometry>
        </mxCell>
        <mxCell id="AXswlEOneYYweRu8q5Nk-30" value="Wyłączenie systemu" style="edgeLabel;html=1;align=center;verticalAlign=middle;resizable=0;points=[];" vertex="1" connectable="0" parent="AXswlEOneYYweRu8q5Nk-16">
          <mxGeometry x="-0.1237" relative="1" as="geometry">
            <mxPoint x="8" as="offset" />
          </mxGeometry>
        </mxCell>
        <mxCell id="AXswlEOneYYweRu8q5Nk-17" value="" style="endArrow=classic;html=1;rounded=0;exitX=0;exitY=1;exitDx=0;exitDy=0;entryX=0.5;entryY=0;entryDx=0;entryDy=0;edgeStyle=orthogonalEdgeStyle;" edge="1" parent="1" source="AXswlEOneYYweRu8q5Nk-5" target="AXswlEOneYYweRu8q5Nk-10">
          <mxGeometry width="50" height="50" relative="1" as="geometry">
            <mxPoint x="230" y="240" as="sourcePoint" />
            <mxPoint x="280" y="190" as="targetPoint" />
          </mxGeometry>
        </mxCell>
        <mxCell id="AXswlEOneYYweRu8q5Nk-29" value="Timer / Sygnał mierzenia" style="edgeLabel;html=1;align=center;verticalAlign=middle;resizable=0;points=[];" vertex="1" connectable="0" parent="AXswlEOneYYweRu8q5Nk-17">
          <mxGeometry x="0.3103" y="2" relative="1" as="geometry">
            <mxPoint x="-39" y="-12" as="offset" />
          </mxGeometry>
        </mxCell>
        <mxCell id="AXswlEOneYYweRu8q5Nk-18" value="" style="endArrow=classic;html=1;rounded=0;exitX=0.5;exitY=1;exitDx=0;exitDy=0;entryX=0.5;entryY=0;entryDx=0;entryDy=0;" edge="1" parent="1" source="AXswlEOneYYweRu8q5Nk-10" target="AXswlEOneYYweRu8q5Nk-11">
          <mxGeometry width="50" height="50" relative="1" as="geometry">
            <mxPoint x="230" y="240" as="sourcePoint" />
            <mxPoint x="280" y="190" as="targetPoint" />
          </mxGeometry>
        </mxCell>
        <mxCell id="AXswlEOneYYweRu8q5Nk-28" value="Odczyt wartości" style="edgeLabel;html=1;align=center;verticalAlign=middle;resizable=0;points=[];" vertex="1" connectable="0" parent="AXswlEOneYYweRu8q5Nk-18">
          <mxGeometry x="-0.1724" relative="1" as="geometry">
            <mxPoint as="offset" />
          </mxGeometry>
        </mxCell>
        <mxCell id="AXswlEOneYYweRu8q5Nk-19" value="" style="endArrow=classic;html=1;rounded=0;exitX=1;exitY=1;exitDx=0;exitDy=0;entryX=0.5;entryY=0;entryDx=0;entryDy=0;edgeStyle=orthogonalEdgeStyle;" edge="1" parent="1" source="AXswlEOneYYweRu8q5Nk-11" target="AXswlEOneYYweRu8q5Nk-12">
          <mxGeometry width="50" height="50" relative="1" as="geometry">
            <mxPoint x="230" y="240" as="sourcePoint" />
            <mxPoint x="280" y="190" as="targetPoint" />
            <Array as="points">
              <mxPoint x="175" y="220" />
              <mxPoint x="185" y="220" />
              <mxPoint x="185" y="230" />
              <mxPoint x="198" y="230" />
            </Array>
          </mxGeometry>
        </mxCell>
        <mxCell id="AXswlEOneYYweRu8q5Nk-20" value="" style="endArrow=classic;html=1;rounded=0;exitX=0.5;exitY=1;exitDx=0;exitDy=0;entryX=0.5;entryY=0;entryDx=0;entryDy=0;" edge="1" parent="1" source="AXswlEOneYYweRu8q5Nk-12" target="AXswlEOneYYweRu8q5Nk-13">
          <mxGeometry width="50" height="50" relative="1" as="geometry">
            <mxPoint x="230" y="240" as="sourcePoint" />
            <mxPoint x="280" y="190" as="targetPoint" />
          </mxGeometry>
        </mxCell>
        <mxCell id="AXswlEOneYYweRu8q5Nk-26" value="Potwierdzenie zapisu" style="edgeLabel;html=1;align=center;verticalAlign=middle;resizable=0;points=[];" vertex="1" connectable="0" parent="AXswlEOneYYweRu8q5Nk-20">
          <mxGeometry x="-0.1207" y="-1" relative="1" as="geometry">
            <mxPoint as="offset" />
          </mxGeometry>
        </mxCell>
        <mxCell id="AXswlEOneYYweRu8q5Nk-21" value="" style="endArrow=classic;html=1;rounded=0;entryX=0;entryY=0;entryDx=0;entryDy=0;edgeStyle=orthogonalEdgeStyle;exitX=0.5;exitY=1;exitDx=0;exitDy=0;" edge="1" parent="1" source="AXswlEOneYYweRu8q5Nk-11">
          <mxGeometry width="50" height="50" relative="1" as="geometry">
            <mxPoint x="128" y="230" as="sourcePoint" />
            <mxPoint x="149.9999999999999" y="310" as="targetPoint" />
            <Array as="points">
              <mxPoint x="128" y="270" />
              <mxPoint x="80" y="270" />
              <mxPoint x="80" y="310" />
            </Array>
          </mxGeometry>
        </mxCell>
        <mxCell id="AXswlEOneYYweRu8q5Nk-27" value="Wilgotność &amp;lt;= próg" style="edgeLabel;html=1;align=center;verticalAlign=middle;resizable=0;points=[];" vertex="1" connectable="0" parent="AXswlEOneYYweRu8q5Nk-21">
          <mxGeometry x="-0.0753" y="-1" relative="1" as="geometry">
            <mxPoint x="-2" y="1" as="offset" />
          </mxGeometry>
        </mxCell>
        <mxCell id="AXswlEOneYYweRu8q5Nk-22" value="" style="endArrow=classic;html=1;rounded=0;exitX=1;exitY=0;exitDx=0;exitDy=0;entryX=1;entryY=0.5;entryDx=0;entryDy=0;edgeStyle=orthogonalEdgeStyle;" edge="1" parent="1" source="AXswlEOneYYweRu8q5Nk-13" target="AXswlEOneYYweRu8q5Nk-5">
          <mxGeometry width="50" height="50" relative="1" as="geometry">
            <mxPoint x="300" y="290" as="sourcePoint" />
            <mxPoint x="350" y="240" as="targetPoint" />
            <Array as="points">
              <mxPoint x="245" y="310" />
              <mxPoint x="280" y="310" />
              <mxPoint x="280" y="210" />
              <mxPoint x="310" y="210" />
              <mxPoint x="310" y="100" />
            </Array>
          </mxGeometry>
        </mxCell>
        <mxCell id="AXswlEOneYYweRu8q5Nk-25" value="Oczekiwanie na kolejny pomiar" style="edgeLabel;html=1;align=center;verticalAlign=middle;resizable=0;points=[];" vertex="1" connectable="0" parent="AXswlEOneYYweRu8q5Nk-22">
          <mxGeometry x="-0.1776" y="-2" relative="1" as="geometry">
            <mxPoint x="38" y="-18" as="offset" />
          </mxGeometry>
        </mxCell>
      </root>
    </mxGraphModel>
  </diagram>
</mxfile>
